<svg width="153" height="46" viewBox="0 0 153 46" fill="none" xmlns="http://www.w3.org/2000/svg">
<path d="M0.25 7.5H2.75V5H15.25V7.5H17.75V10H12.75V7.5H5.25V27.5H12.75V25H17.75V27.5H15.25V30H2.75V27.5H0.25V7.5ZM20.25 7.5H22.75V5H35.25V7.5H37.75V27.5H35.25V30H22.75V27.5H20.25V7.5ZM25.25 7.5V27.5H32.75V7.5H25.25ZM40.25 5H55.25V7.5H57.75V27.5H55.25V30H40.25V5ZM45.25 7.5V27.5H52.75V7.5H45.25ZM60.25 7.5H62.75V5H77.75V7.5H65.25V15H75.25V17.5H65.25V27.5H77.75V30H62.75V27.5H60.25V7.5ZM80.25 5H95.25V7.5H97.75V30H92.75V7.5H85.25V30H80.25V5ZM100.25 7.5H102.75V5H115.25V7.5H117.75V30H112.75V17.5H105.25V30H100.25V7.5ZM105.25 7.5V15H112.75V7.5H105.25ZM120.25 5H125.25V25H127.75V27.5H130.25V25H132.75V5H137.75V25H135.25V27.5H132.75V30H125.25V27.5H122.75V25H120.25V5ZM140.25 5H150.25V7.5H147.75V27.5H150.25V30H140.25V27.5H142.75V7.5H140.25V5Z" fill="#00FF41"/>
<path d="M0 35.5H1.5V38.5H3.75V35.5H5.25V43H3.75V39.25H1.5V43H0V35.5ZM6 37.75H10.5V38.5H11.25V43H6.75V42.25H6V40H6.75V39.25H9.75V38.5H6V37.75ZM7.5 40V42.25H9.75V40H7.5ZM12 38.5H12.75V37.75H16.5V38.5H17.25V39.25H15.75V38.5H13.5V42.25H15.75V41.5H17.25V42.25H16.5V43H12.75V42.25H12V38.5ZM18 35.5H19.5V40H21V39.25H21.75V37.75H23.25V39.25H22.5V40H21.75V40.75H22.5V41.5H23.25V43H21.75V41.5H21V40.75H19.5V43H18V35.5ZM27.75 37.75H28.5V35.5H30V37.75H31.5V38.5H30V42.25H31.5V43H29.25V42.25H28.5V38.5H27.75V37.75ZM32.25 35.5H33.75V38.5H34.5V37.75H36.75V38.5H37.5V43H36V38.5H34.5V39.25H33.75V43H32.25V35.5ZM38.25 38.5H39V37.75H42.75V38.5H43.5V40H39.75V42.25H42V41.5H43.5V42.25H42.75V43H39V42.25H38.25V38.5ZM39.75 38.5V39.25H42V38.5H39.75ZM48 36.25H48.75V35.5H52.5V36.25H53.25V43H51.75V39.25H49.5V43H48V36.25ZM49.5 36.25V38.5H51.75V36.25H49.5ZM54 35.5H56.25V42.25H57V43H55.5V42.25H54.75V36.25H54V35.5ZM57.75 38.5H58.5V37.75H63V44.5H62.25V45.25H58.5V44.5H57.75V43.75H59.25V44.5H61.5V43H58.5V42.25H57.75V38.5ZM59.25 38.5V42.25H61.5V38.5H59.25ZM63.75 38.5H64.5V37.75H68.25V38.5H69V42.25H68.25V43H64.5V42.25H63.75V38.5ZM65.25 38.5V42.25H67.5V38.5H65.25ZM69.75 37.75H71.25V38.5H72V37.75H74.25V38.5H75V40H73.5V38.5H72V39.25H71.25V43H69.75V37.75ZM75.75 37.75H78V42.25H78.75V43H77.25V42.25H76.5V38.5H75.75V37.75ZM76.5 35.5H78V37H76.5V35.5ZM79.5 37.75H80.25V35.5H81.75V37.75H83.25V38.5H81.75V42.25H83.25V43H81V42.25H80.25V38.5H79.5V37.75ZM84 35.5H85.5V38.5H86.25V37.75H88.5V38.5H89.25V43H87.75V38.5H86.25V39.25H85.5V43H84V35.5ZM90 37.75H95.25V38.5H96V43H94.5V38.5H93.75V43H92.25V38.5H91.5V43H90V37.75ZM100.5 35.5H105.75V36.25H106.5V43H105V36.25H104.25V43H102.75V36.25H102V43H100.5V35.5ZM107.25 37.75H111.75V38.5H112.5V43H108V42.25H107.25V40H108V39.25H111V38.5H107.25V37.75ZM108.75 40V42.25H111V40H108.75ZM113.25 37.75H114V35.5H115.5V37.75H117V38.5H115.5V42.25H117V43H114.75V42.25H114V38.5H113.25V37.75ZM117.75 37.75H119.25V38.5H120V37.75H122.25V38.5H123V40H121.5V38.5H120V39.25H119.25V43H117.75V37.75ZM123.75 37.75H126V42.25H126.75V43H125.25V42.25H124.5V38.5H123.75V37.75ZM124.5 35.5H126V37H124.5V35.5ZM127.5 37.75H129V39.25H129.75V40H130.5V39.25H131.25V37.75H132.75V39.25H132V40H131.25V40.75H132V41.5H132.75V43H131.25V41.5H130.5V40.75H129.75V41.5H129V43H127.5V41.5H128.25V40.75H129V40H128.25V39.25H127.5V37.75ZM138 34.75H139.5V44.5H138V34.75Z" fill="#04FFFF"/>
</svg>
