<svg width="158" height="26" viewBox="0 0 158 26" fill="none" xmlns="http://www.w3.org/2000/svg">
<path d="M0 2.6H2.63333V0H15.8V2.6H18.4333V5.2H13.1667V2.6H5.26667V23.4H13.1667V20.8H18.4333V23.4H15.8V26H2.63333V23.4H0V2.6ZM21.0667 2.6H23.7V0H36.8667V2.6H39.5V23.4H36.8667V26H23.7V23.4H21.0667V2.6ZM26.3333 2.6V23.4H34.2333V2.6H26.3333ZM42.1333 0H57.9333V2.6H60.5667V23.4H57.9333V26H42.1333V0ZM47.4 2.6V23.4H55.3V2.6H47.4ZM63.2 2.6H65.8333V0H81.6333V2.6H68.4667V10.4H79V13H68.4667V23.4H81.6333V26H65.8333V23.4H63.2V2.6ZM84.2667 0H100.067V2.6H102.7V26H97.4333V2.6H89.5333V26H84.2667V0ZM105.333 2.6H107.967V0H121.133V2.6H123.767V26H118.5V13H110.6V26H105.333V2.6ZM110.6 2.6V10.4H118.5V2.6H110.6ZM126.4 0H131.667V20.8H134.3V23.4H136.933V20.8H139.567V0H144.833V20.8H142.2V23.4H139.567V26H131.667V23.4H129.033V20.8H126.4V0ZM147.467 0H158V2.6H155.367V23.4H158V26H147.467V23.4H150.1V2.6H147.467V0Z" fill="#00FF41"/>
</svg>
